<?xml version="1.0" encoding="UTF-8" standalone="no"?>
<svg
   height="500"
   viewBox="-12.78 -94.907 250 250"
   width="500"
   version="1.1"
   id="svg26"
   sodipodi:docname="FFmpeg_Logo_new_x2.svg"
   inkscape:version="1.4.4 (dcaf3e7, 2026-05-05)"
   xmlns:inkscape="http://www.inkscape.org/namespaces/inkscape"
   xmlns:sodipodi="http://sodipodi.sourceforge.net/DTD/sodipodi-0.dtd"
   xmlns="http://www.w3.org/2000/svg"
   xmlns:svg="http://www.w3.org/2000/svg">
  <defs
     id="defs26" />
  <sodipodi:namedview
     id="namedview26"
     pagecolor="#ffffff"
     bordercolor="#666666"
     borderopacity="1.0"
     inkscape:showpageshadow="2"
     inkscape:pageopacity="0.0"
     inkscape:pagecheckerboard="0"
     inkscape:deskcolor="#d1d1d1"
     inkscape:zoom="0.98578684"
     inkscape:cx="-206.43408"
     inkscape:cy="104.99227"
     inkscape:window-width="1920"
     inkscape:window-height="1009"
     inkscape:window-x="-8"
     inkscape:window-y="-8"
     inkscape:window-maximized="1"
     inkscape:current-layer="svg26" />
  <radialGradient
     id="a"
     cx="-122.39"
     cy="442.72"
     gradientTransform="matrix(1,0,0,-1,134.45,453.72148)"
     gradientUnits="userSpaceOnUse"
     r="29.58">
    <stop
       offset="0"
       stop-color="#fff"
       id="stop1" />
    <stop
       offset="1"
       stop-color="#007808"
       id="stop2" />
  </radialGradient>
  <path
     d="m 0.511,12.35548 v -7.286 l 4.891,1.685 v 6.778 z"
     fill="#0b4819"
     id="path2" />
  <path
     d="m 4.455,42.30848 v -27.091 l 4.675,0.989 v 25.178 z"
     fill="#0b4819"
     id="path3" />
  <path
     d="m 27.321,5.05748 -12.015,13.78 v 5.864 l 17.82,-20.093 28.225,-2.185 -41.517,43.274 5.527,0.291 30.155,-30.843 v 29.151 l -3.35,3.149 8.496,0.459 v 8.068 l -26.65,-2.064 13.585,-13.179 v -6.495 l -19.422,19.222 -23.256,-1.798 37.303,-40.117 -6.139,0.332 -26.953,29.511 v -25.178 l 2.553,-3.014 -6.281,0.34 v -6.778 z"
     fill="#105c80"
     id="path4" />
  <path
     d="m 4.455,15.21748 2.704,-3.255 4.524,1.23 -2.553,3.014 z"
     fill="#0b4819"
     id="path5" />
  <path
     d="m 11.004,18.03048 4.302,0.807 v 5.864 l -4.302,-0.352 z"
     fill="#084010"
     id="path6" />
  <path
     d="m 15.82,46.99748 4.014,-1.3 5.527,0.291 -3.647,1.349 z"
     fill="#0c541e"
     id="path7" />
  <path
     d="m 23.808,3.09748 3.513,1.96 -12.015,13.78 -4.302,-0.807 z"
     fill="#1a5c34"
     id="path8" />
  <path
     d="m 11.004,24.34948 19.018,-21.778 3.104,2.037 -17.82,20.093 z"
     fill="#0b4819"
     id="path9" />
  <path
     d="m 33.195,10.42348 2.888,1.45 -26.953,29.511 -4.675,0.924 z"
     fill="#1a5c34"
     id="path10" />
  <path
     d="m 0,53.33548 39.798,-43.302 2.424,1.508 -37.303,40.117 z"
     fill="#0b4819"
     id="path11" />
  <path
     d="m 45.597,34.66848 2,-0.434 -19.422,19.222 -3.454,1.972 z"
     fill="#1a5c34"
     id="path12" />
  <path
     d="m 45.597,41.72848 v -7.06 l 2,-0.434 v 6.495 z"
     fill="#0b4819"
     id="path13" />
  <path
     d="m 30.973,55.95648 14.624,-14.228 2,-0.999 -13.585,13.179 z"
     fill="#0b4819"
     id="path14" />
  <path
     d="m 54.168,45.63948 -3.63,3.411 1.628,-1.605 3.35,-3.149 z"
     fill="#13802d"
     id="path15" />
  <path
     d="m 21.714,47.33748 32.454,-33.446 1.348,1.254 -30.155,30.843 z"
     fill="#0b4819"
     id="path16" />
  <path
     d="m 54.168,13.89148 1.348,1.254 v 29.151 l -1.348,1.343 z"
     fill="#084010"
     id="path17" />
  <path
     d="m 59.759,49.59548 0.903,-1.691 v 8.068 l -0.903,2.422 z"
     fill="#084010"
     id="path18" />
  <path
     d="m 60.507,-0.00852 0.844,2.432 -41.517,43.274 -4.014,1.3 z"
     fill="#1a5c34"
     id="path19" />
  <path
     d="m 23.808,3.09748 -12.804,14.933 v 6.319 l 19.018,-21.778 30.485,-2.58 -44.687,47.006 5.894,0.34 32.454,-33.446 v 31.748 l -3.63,3.411 9.221,0.545 v 8.799 l -28.786,-2.438 14.624,-14.228 v -7.06 l -20.876,20.76 -24.721,-2.093 39.798,-43.302 -6.603,0.39 -28.74,31.885 v -27.091 l 2.704,-3.255 -6.648,0.393 v -7.286 z"
     fill="url(#a)"
     id="path20"
     style="fill:url(#a)" />
  <g
     transform="matrix(2.61604,0,0,2.61604,70,-145.00852)"
     id="g26">
    <path
       d="m 2.907,66.777 h 3.918 v 2.452 H 2.907 v 5.458 h -2.11 v 0.001 -13.184 h 7.421 v 2.461 H 2.907 Z"
       id="path21" />
    <path
       d="m 11.13,66.777 h 3.919 v 2.452 H 11.13 v 5.458 H 9.021 v 0.001 -13.184 h 7.421 v 2.461 H 11.13 Z"
       id="path22" />
    <path
       d="m 19.69,69.063 v 5.625 H 17.229 V 66.154 L 19.69,65.89 v 0.782 c 0.551,-0.517 1.254,-0.773 2.109,-0.773 1.113,0 1.963,0.337 2.549,1.011 0.645,-0.674 1.611,-1.011 2.9,-1.011 1.113,0 1.963,0.337 2.549,1.011 0.586,0.675 0.879,1.45 0.879,2.329 v 5.449 h -2.461 v -4.834 c 0,-0.586 -0.132,-1.04 -0.396,-1.362 -0.264,-0.321 -0.691,-0.491 -1.283,-0.51 -0.486,0.035 -0.908,0.357 -1.266,0.967 -0.029,0.183 -0.044,0.366 -0.044,0.555 v 5.186 h -2.461 v -4.834 c 0,-0.586 -0.132,-1.04 -0.396,-1.362 -0.264,-0.321 -0.689,-0.492 -1.281,-0.511 -0.539,0.034 -1.005,0.394 -1.398,1.08 z"
       id="path23" />
    <path
       d="M 31.913,78.379 V 66.154 l 2.461,-0.264 v 0.703 c 0.656,-0.47 1.301,-0.703 1.934,-0.703 1.348,0 2.417,0.438 3.208,1.317 0.791,0.88 1.187,1.904 1.187,3.076 0,1.172 -0.396,2.197 -1.187,3.076 -0.791,0.879 -1.86,1.318 -3.208,1.318 -0.879,-0.06 -1.523,-0.296 -1.934,-0.712 v 4.421 z m 2.461,-8.885 v 1.425 c 0.117,0.983 0.732,1.562 1.846,1.73 1.406,-0.111 2.197,-0.841 2.373,-2.188 -0.059,-1.642 -0.85,-2.49 -2.373,-2.55 -1.114,0.176 -1.729,0.704 -1.846,1.583 z"
       id="path24" />
    <path
       d="m 41.094,70.293 c 0,-1.289 0.41,-2.345 1.23,-3.164 0.82,-0.82 1.875,-1.23 3.164,-1.23 1.289,0 2.314,0.41 3.076,1.23 0.762,0.819 1.143,1.875 1.143,3.164 v 0.879 h -6.064 c 0.059,0.469 0.264,0.835 0.615,1.099 0.351,0.264 0.762,0.396 1.23,0.396 0.82,0 1.553,-0.233 2.197,-0.702 l 1.406,1.405 c -0.645,0.879 -1.846,1.318 -3.604,1.318 -1.289,0 -2.344,-0.41 -3.164,-1.23 -0.82,-0.82 -1.229,-1.875 -1.229,-3.165 z m 5.625,-1.977 c -0.352,-0.264 -0.762,-0.396 -1.23,-0.396 -0.468,0 -0.879,0.132 -1.23,0.396 -0.351,0.264 -0.527,0.63 -0.527,1.099 h 3.516 C 47.246,68.946 47.07,68.58 46.719,68.316 Z"
       id="path25" />
    <path
       d="m 59.037,66.163 v 7.822 c 0,1.23 -0.366,2.259 -1.099,3.085 -0.733,0.826 -1.655,1.263 -2.769,1.311 l -0.527,0.053 c -1.699,-0.035 -3.018,-0.521 -3.955,-1.459 l 1.143,-1.318 c 0.645,0.47 1.427,0.732 2.347,0.791 0.938,0 1.572,-0.22 1.902,-0.659 0.332,-0.438 0.497,-0.923 0.497,-1.449 v -0.439 c -0.656,0.527 -1.418,0.791 -2.285,0.791 -1.348,0 -2.358,-0.396 -3.032,-1.187 -0.674,-0.791 -1.011,-1.86 -1.011,-3.208 0,-1.289 0.366,-2.345 1.099,-3.164 0.733,-0.82 1.772,-1.23 3.12,-1.23 0.996,0.06 1.699,0.325 2.109,0.8 v -0.8 z m -2.461,4.921 V 69.66 c -0.117,-0.983 -0.732,-1.562 -1.846,-1.73 -1.465,0.053 -2.256,0.782 -2.373,2.188 0.059,1.642 0.85,2.49 2.373,2.55 1.114,-0.177 1.729,-0.705 1.846,-1.584 z"
       id="path26" />
  </g>
</svg>
